<?xml version="1.0" encoding="utf-8"?>
<!-- Generator: Adobe Illustrator 21.1.0, SVG Export Plug-In . SVG Version: 6.00 Build 0)  -->
<svg version="1.1" baseProfile="basic" id="Layer_1"
	 xmlns="http://www.w3.org/2000/svg" xmlns:xlink="http://www.w3.org/1999/xlink" x="0px" y="0px" viewBox="0 0 64 64"
	 xml:space="preserve">
<style type="text/css">
	.st0{fill:#49C4D9;}
	.st1{fill:#FFFFFF;}
	.st2{fill:#A3DBE7;}
	.st3{fill:#EAEAEA;}
	.st4{fill:#04B5AF;}
	.st5{fill:#ED3332;}
	.st6{fill:#EFD01A;}
	.st7{fill:#DBD8D4;}
</style>
<g>
	<g>
		<g>
			<g>
				<ellipse class="st0" cx="32" cy="32" rx="30.7" ry="30.8"/>
			</g>
		</g>
		<g>
			<g>
				<polygon class="st1" points="16.5,12.3 16.5,51.7 45.8,51.7 45.8,20.3 37.8,12.3 				"/>
				<polygon class="st2" points="45.8,20.3 37.8,12.3 37.8,20.3 				"/>
				<polygon class="st3" points="38.9,20.3 45.8,28.2 45.8,20.3 				"/>
				<rect x="19.3" y="16.3" class="st4" width="10.7" height="1.4"/>
				<rect x="19.3" y="18.7" class="st5" width="10.7" height="1.4"/>
				<rect x="19.3" y="21" class="st6" width="10.7" height="1.4"/>
				<rect x="19.3" y="24.2" class="st7" width="19.6" height="0.8"/>
				<rect x="19.3" y="26.2" class="st7" width="19.6" height="0.8"/>
				<rect x="19.3" y="28.2" class="st7" width="19.6" height="0.8"/>
				<rect x="19.3" y="30.2" class="st7" width="19.6" height="0.8"/>
				<rect x="19.3" y="32.2" class="st7" width="19.6" height="0.8"/>
				<rect x="19.3" y="34.1" class="st7" width="19.6" height="0.8"/>
				<rect x="19.3" y="36.1" class="st7" width="19.6" height="0.8"/>
				<rect x="19.3" y="38.1" class="st7" width="19.6" height="0.8"/>
				<rect x="19.3" y="40.1" class="st7" width="19.6" height="0.8"/>
				<rect x="19.3" y="42.1" class="st7" width="19.6" height="0.8"/>
				<rect x="19.3" y="44" class="st7" width="19.6" height="0.8"/>
				<rect x="19.3" y="46" class="st7" width="19.6" height="0.8"/>
				<rect x="19.3" y="48" class="st7" width="19.6" height="0.8"/>
			</g>
		</g>
	</g>
	<path class="st4" d="M23.1,36.4c0.2,0.2,1.1,1.3,2.3,2.7c1.4,1.7,3.1,3.6,3.3,3.9c0.4,0.4,0.6,0.1,1.1-0.9c0.7-1.5,2.2-4.6,4.3-7.5
		s5.3-6.1,6-6.7c0.8-0.6,1.1-1,0.6-1.2s-4.4,2.6-6.7,5c-2.4,2.7-5.1,7-5.8,7.1c-0.5,0.1-3.1-1.8-3.8-2.3
		C23.7,36,22.7,35.8,23.1,36.4z"/>
</g>
</svg>
