<?xml version="1.0" encoding="utf-8"?>
<!-- Generator: Adobe Illustrator 22.0.1, SVG Export Plug-In . SVG Version: 6.00 Build 0)  -->
<svg version="1.1" baseProfile="basic" id="Layer_1"
	 xmlns="http://www.w3.org/2000/svg" xmlns:xlink="http://www.w3.org/1999/xlink" x="0px" y="0px" viewBox="0 0 222.3 319.4"
	 xml:space="preserve">
<style type="text/css">
	.st0{fill:#19669E;}
</style>
<g>
	<path class="st0" d="M152.4,40.8c0,22.5-18.4,40.8-41.2,40.8C88.4,81.5,70,63.3,70,40.8C70,18.3,88.4,0,111.2,0
		C133.9,0,152.4,18.3,152.4,40.8L152.4,40.8z M152.4,40.8"/>
	<path class="st0" d="M190.2,181.5l-27.5-72.6c-0.7-1.8-6.6-14-17.6-14c-3.5,0-63.7,0.1-65.6,0.1h-2.3c-12.3,0-16.9,12.1-17.6,13.9
		l-27.5,72.6c-0.7,1.8-0.3,4.1,3.6,4.1H56c3.7,0,4.8-3.2,4.8-3.2l13.1-35.1c0,0,1.6-4.5,1.6,0.4c0,6.7,0.1,24.6,0.1,33.2
		c0,2.9,0.5,4.8,3.9,4.8h66.9c4.8,0,4.2-2.5,4.2-6.2c0-9.1-0.1-25.6-0.1-32.1c0-3.3,1.2-1,1.2-1l12.3,35.5c0,0,1.2,3.8,5.5,3.8h16.8
		C190.4,185.7,190.9,183.4,190.2,181.5L190.2,181.5z M127.3,160.7l-13.8,12.7c-1.3,1.2-3.4,1.2-4.7,0L95,160.7
		c-1.3-1.2-2.1-3.6-1.7-5.3l7.2-34.4c0.1-0.5,0.4-2.1,0.4-2.4c-0.1-1.8-0.6-7.3-0.6-7.3c-0.1-1.8,1.2-3.2,2.9-3.2H119
		c1.8,0,3.1,1.4,2.9,3.2c0,0-0.4,5.4-0.6,7.3c0,0.4,0.3,1.9,0.4,2.4l7.2,34.4C129.4,157.2,128.6,159.5,127.3,160.7L127.3,160.7z
		 M127.3,160.7"/>
	<path class="st0" d="M221.5,214.7c2.7-7.4-1.5-13.4-9.3-13.4h-202c-7.9,0-12,6-9.3,13.4l6.9,18.6c2.7,7.4,8.3,13.4,12.3,13.4
		s8.5,6.3,10,14l8.4,44.7c1.5,7.7,9.1,14,16.9,14h111.6c7.9,0,15.5-6.3,16.9-14l8.4-44.7c1.5-7.7,5.9-14,10-14s9.6-6,12.3-13.4
		L221.5,214.7z M221.5,214.7"/>
</g>
</svg>
