<svg width="369" height="81" viewBox="0 0 369 81" fill="none" xmlns="http://www.w3.org/2000/svg">
<path d="M1.01926 18.1326L11.0097 8.49413L11.0424 27.7371L1.01926 18.1326Z" fill="#454544"/>
<path d="M366.828 62.4982L356.454 52.5581L356.488 72.4736L366.828 62.4982Z" fill="#454544"/>
<path d="M0.823242 18.0607L366.075 11.4974L367.099 62.2716L9 72.5L0.823242 18.0607Z" fill="#F182A3"/>
<path d="M316.223 32V53H313.693V32H316.223ZM315.621 45.043L314.568 45.002C314.577 43.9902 314.728 43.056 315.02 42.1992C315.311 41.3333 315.721 40.5814 316.25 39.9434C316.779 39.3053 317.408 38.8132 318.137 38.4668C318.875 38.1113 319.691 37.9336 320.584 37.9336C321.313 37.9336 321.969 38.0339 322.553 38.2344C323.136 38.4258 323.633 38.7357 324.043 39.1641C324.462 39.5924 324.781 40.1484 325 40.832C325.219 41.5065 325.328 42.3314 325.328 43.3066V53H322.785V43.2793C322.785 42.5046 322.671 41.8848 322.443 41.4199C322.215 40.946 321.883 40.6042 321.445 40.3945C321.008 40.1758 320.47 40.0664 319.832 40.0664C319.203 40.0664 318.629 40.1986 318.109 40.4629C317.599 40.7272 317.157 41.0918 316.783 41.5566C316.419 42.0215 316.132 42.5547 315.922 43.1562C315.721 43.7487 315.621 44.3776 315.621 45.043Z" fill="white"/>
<path d="M300.746 41.3652V53H298.217V38.207H300.609L300.746 41.3652ZM300.145 45.043L299.092 45.002C299.101 43.9902 299.251 43.056 299.543 42.1992C299.835 41.3333 300.245 40.5814 300.773 39.9434C301.302 39.3053 301.931 38.8132 302.66 38.4668C303.398 38.1113 304.214 37.9336 305.107 37.9336C305.837 37.9336 306.493 38.0339 307.076 38.2344C307.66 38.4258 308.156 38.7357 308.566 39.1641C308.986 39.5924 309.305 40.1484 309.523 40.832C309.742 41.5065 309.852 42.3314 309.852 43.3066V53H307.309V43.2793C307.309 42.5046 307.195 41.8848 306.967 41.4199C306.739 40.946 306.406 40.6042 305.969 40.3945C305.531 40.1758 304.993 40.0664 304.355 40.0664C303.727 40.0664 303.152 40.1986 302.633 40.4629C302.122 40.7272 301.68 41.0918 301.307 41.5566C300.942 42.0215 300.655 42.5547 300.445 43.1562C300.245 43.7487 300.145 44.3776 300.145 45.043Z" fill="white"/>
<path d="M291.709 50.4707V42.8555C291.709 42.2721 291.59 41.7663 291.354 41.3379C291.126 40.9004 290.779 40.5632 290.314 40.3262C289.85 40.0892 289.275 39.9707 288.592 39.9707C287.954 39.9707 287.393 40.0801 286.91 40.2988C286.436 40.5176 286.062 40.8047 285.789 41.1602C285.525 41.5156 285.393 41.8984 285.393 42.3086H282.863C282.863 41.7799 283 41.2559 283.273 40.7363C283.547 40.2168 283.939 39.7474 284.449 39.3281C284.969 38.8997 285.589 38.5625 286.309 38.3164C287.038 38.0612 287.849 37.9336 288.742 37.9336C289.818 37.9336 290.766 38.1159 291.586 38.4805C292.415 38.8451 293.062 39.3965 293.527 40.1348C294.001 40.8639 294.238 41.7799 294.238 42.8828V49.7734C294.238 50.2656 294.279 50.7897 294.361 51.3457C294.452 51.9017 294.585 52.3802 294.758 52.7812V53H292.119C291.992 52.7083 291.891 52.321 291.818 51.8379C291.745 51.3457 291.709 50.89 291.709 50.4707ZM292.146 44.0312L292.174 45.8086H289.617C288.897 45.8086 288.255 45.8678 287.689 45.9863C287.124 46.0957 286.65 46.2643 286.268 46.4922C285.885 46.7201 285.593 47.0072 285.393 47.3535C285.192 47.6908 285.092 48.0872 285.092 48.543C285.092 49.0078 285.197 49.4316 285.406 49.8145C285.616 50.1973 285.93 50.5026 286.35 50.7305C286.778 50.9492 287.302 51.0586 287.922 51.0586C288.697 51.0586 289.38 50.8945 289.973 50.5664C290.565 50.2383 291.035 49.8372 291.381 49.3633C291.736 48.8893 291.928 48.429 291.955 47.9824L293.035 49.1992C292.971 49.582 292.798 50.0059 292.516 50.4707C292.233 50.9355 291.855 51.3822 291.381 51.8105C290.916 52.2298 290.36 52.5807 289.713 52.8633C289.075 53.1367 288.355 53.2734 287.553 53.2734C286.55 53.2734 285.671 53.0775 284.914 52.6855C284.167 52.2936 283.583 51.7695 283.164 51.1133C282.754 50.4479 282.549 49.7051 282.549 48.8848C282.549 48.0918 282.704 47.3945 283.014 46.793C283.324 46.1823 283.77 45.6764 284.354 45.2754C284.937 44.8652 285.639 44.5553 286.459 44.3457C287.279 44.1361 288.195 44.0312 289.207 44.0312H292.146ZM287.621 36.0195L290.273 32H293.322L289.658 36.0195H287.621Z" fill="white"/>
<path d="M263.094 41.3652V53H260.564V38.207H262.957L263.094 41.3652ZM262.492 45.043L261.439 45.002C261.449 43.9902 261.599 43.056 261.891 42.1992C262.182 41.3333 262.592 40.5814 263.121 39.9434C263.65 39.3053 264.279 38.8132 265.008 38.4668C265.746 38.1113 266.562 37.9336 267.455 37.9336C268.184 37.9336 268.84 38.0339 269.424 38.2344C270.007 38.4258 270.504 38.7357 270.914 39.1641C271.333 39.5924 271.652 40.1484 271.871 40.832C272.09 41.5065 272.199 42.3314 272.199 43.3066V53H269.656V43.2793C269.656 42.5046 269.542 41.8848 269.314 41.4199C269.087 40.946 268.754 40.6042 268.316 40.3945C267.879 40.1758 267.341 40.0664 266.703 40.0664C266.074 40.0664 265.5 40.1986 264.98 40.4629C264.47 40.7272 264.028 41.0918 263.654 41.5566C263.29 42.0215 263.003 42.5547 262.793 43.1562C262.592 43.7487 262.492 44.3776 262.492 45.043Z" fill="white"/>
<path d="M254.057 50.4707V42.8555C254.057 42.2721 253.938 41.7663 253.701 41.3379C253.473 40.9004 253.127 40.5632 252.662 40.3262C252.197 40.0892 251.623 39.9707 250.939 39.9707C250.301 39.9707 249.741 40.0801 249.258 40.2988C248.784 40.5176 248.41 40.8047 248.137 41.1602C247.872 41.5156 247.74 41.8984 247.74 42.3086H245.211C245.211 41.7799 245.348 41.2559 245.621 40.7363C245.895 40.2168 246.286 39.7474 246.797 39.3281C247.316 38.8997 247.936 38.5625 248.656 38.3164C249.385 38.0612 250.197 37.9336 251.09 37.9336C252.165 37.9336 253.113 38.1159 253.934 38.4805C254.763 38.8451 255.41 39.3965 255.875 40.1348C256.349 40.8639 256.586 41.7799 256.586 42.8828V49.7734C256.586 50.2656 256.627 50.7897 256.709 51.3457C256.8 51.9017 256.932 52.3802 257.105 52.7812V53H254.467C254.339 52.7083 254.239 52.321 254.166 51.8379C254.093 51.3457 254.057 50.89 254.057 50.4707ZM254.494 44.0312L254.521 45.8086H251.965C251.245 45.8086 250.602 45.8678 250.037 45.9863C249.472 46.0957 248.998 46.2643 248.615 46.4922C248.232 46.7201 247.941 47.0072 247.74 47.3535C247.54 47.6908 247.439 48.0872 247.439 48.543C247.439 49.0078 247.544 49.4316 247.754 49.8145C247.964 50.1973 248.278 50.5026 248.697 50.7305C249.126 50.9492 249.65 51.0586 250.27 51.0586C251.044 51.0586 251.728 50.8945 252.32 50.5664C252.913 50.2383 253.382 49.8372 253.729 49.3633C254.084 48.8893 254.275 48.429 254.303 47.9824L255.383 49.1992C255.319 49.582 255.146 50.0059 254.863 50.4707C254.581 50.9355 254.202 51.3822 253.729 51.8105C253.264 52.2298 252.708 52.5807 252.061 52.8633C251.423 53.1367 250.702 53.2734 249.9 53.2734C248.898 53.2734 248.018 53.0775 247.262 52.6855C246.514 52.2936 245.931 51.7695 245.512 51.1133C245.102 50.4479 244.896 49.7051 244.896 48.8848C244.896 48.0918 245.051 47.3945 245.361 46.793C245.671 46.1823 246.118 45.6764 246.701 45.2754C247.285 44.8652 247.986 44.5553 248.807 44.3457C249.627 44.1361 250.543 44.0312 251.555 44.0312H254.494ZM252.32 35.8008H250.502L250.488 33.7227C250.953 33.6953 251.331 33.6497 251.623 33.5859C251.915 33.513 252.129 33.4082 252.266 33.2715C252.402 33.1257 252.471 32.9342 252.471 32.6973C252.471 32.5059 252.411 32.3464 252.293 32.2188C252.174 32.082 252.01 31.9727 251.801 31.8906C251.591 31.7995 251.35 31.7357 251.076 31.6992C250.803 31.6628 250.511 31.6445 250.201 31.6445L250.297 30.1953C250.971 30.1953 251.564 30.2546 252.074 30.373C252.594 30.4915 253.027 30.6647 253.373 30.8926C253.729 31.1204 253.993 31.3939 254.166 31.7129C254.348 32.0228 254.439 32.3691 254.439 32.752C254.439 33.4447 254.221 33.9505 253.783 34.2695C253.346 34.5794 252.863 34.7708 252.334 34.8438L252.32 35.8008Z" fill="white"/>
<path d="M232.441 32V53H229.912V32H232.441ZM231.84 45.043L230.787 45.002C230.796 43.9902 230.947 43.056 231.238 42.1992C231.53 41.3333 231.94 40.5814 232.469 39.9434C232.997 39.3053 233.626 38.8132 234.355 38.4668C235.094 38.1113 235.91 37.9336 236.803 37.9336C237.532 37.9336 238.188 38.0339 238.771 38.2344C239.355 38.4258 239.852 38.7357 240.262 39.1641C240.681 39.5924 241 40.1484 241.219 40.832C241.438 41.5065 241.547 42.3314 241.547 43.3066V53H239.004V43.2793C239.004 42.5046 238.89 41.8848 238.662 41.4199C238.434 40.946 238.102 40.6042 237.664 40.3945C237.227 40.1758 236.689 40.0664 236.051 40.0664C235.422 40.0664 234.848 40.1986 234.328 40.4629C233.818 40.7272 233.376 41.0918 233.002 41.5566C232.637 42.0215 232.35 42.5547 232.141 43.1562C231.94 43.7487 231.84 44.3776 231.84 45.043Z" fill="white"/>
<path d="M216.719 41.0508V58.6875H214.176V38.207H216.5L216.719 41.0508ZM226.686 45.4805V45.7676C226.686 46.8431 226.558 47.8411 226.303 48.7617C226.048 49.6732 225.674 50.4661 225.182 51.1406C224.699 51.8151 224.102 52.3392 223.391 52.7129C222.68 53.0866 221.864 53.2734 220.943 53.2734C220.005 53.2734 219.175 53.1185 218.455 52.8086C217.735 52.4987 217.124 52.0475 216.623 51.4551C216.122 50.8626 215.721 50.1517 215.42 49.3223C215.128 48.4928 214.928 47.5586 214.818 46.5195V44.9883C214.928 43.8945 215.133 42.9147 215.434 42.0488C215.734 41.1829 216.131 40.4447 216.623 39.834C217.124 39.2142 217.73 38.7448 218.441 38.4258C219.152 38.0977 219.973 37.9336 220.902 37.9336C221.832 37.9336 222.657 38.1159 223.377 38.4805C224.097 38.8359 224.703 39.3464 225.195 40.0117C225.688 40.6771 226.057 41.4746 226.303 42.4043C226.558 43.3249 226.686 44.3503 226.686 45.4805ZM224.143 45.7676V45.4805C224.143 44.7422 224.065 44.0495 223.91 43.4023C223.755 42.7461 223.514 42.1719 223.186 41.6797C222.867 41.1784 222.456 40.7865 221.955 40.5039C221.454 40.2122 220.857 40.0664 220.164 40.0664C219.526 40.0664 218.97 40.1758 218.496 40.3945C218.031 40.6133 217.635 40.9095 217.307 41.2832C216.979 41.6478 216.71 42.0671 216.5 42.541C216.299 43.0059 216.149 43.4889 216.049 43.9902V47.5312C216.231 48.1693 216.486 48.7708 216.814 49.3359C217.143 49.8919 217.58 50.3431 218.127 50.6895C218.674 51.0267 219.362 51.1953 220.191 51.1953C220.875 51.1953 221.463 51.054 221.955 50.7715C222.456 50.4798 222.867 50.0833 223.186 49.582C223.514 49.0807 223.755 48.5065 223.91 47.8594C224.065 47.2031 224.143 46.5059 224.143 45.7676Z" fill="white"/>
<path d="M194.297 41.3652V53H191.768V38.207H194.16L194.297 41.3652ZM193.695 45.043L192.643 45.002C192.652 43.9902 192.802 43.056 193.094 42.1992C193.385 41.3333 193.796 40.5814 194.324 39.9434C194.853 39.3053 195.482 38.8132 196.211 38.4668C196.949 38.1113 197.765 37.9336 198.658 37.9336C199.387 37.9336 200.044 38.0339 200.627 38.2344C201.21 38.4258 201.707 38.7357 202.117 39.1641C202.536 39.5924 202.855 40.1484 203.074 40.832C203.293 41.5065 203.402 42.3314 203.402 43.3066V53H200.859V43.2793C200.859 42.5046 200.745 41.8848 200.518 41.4199C200.29 40.946 199.957 40.6042 199.52 40.3945C199.082 40.1758 198.544 40.0664 197.906 40.0664C197.277 40.0664 196.703 40.1986 196.184 40.4629C195.673 40.7272 195.231 41.0918 194.857 41.5566C194.493 42.0215 194.206 42.5547 193.996 43.1562C193.796 43.7487 193.695 44.3776 193.695 45.043Z" fill="white"/>
<path d="M187.707 38.207V53H185.164V38.207H187.707ZM184.973 34.2832C184.973 33.873 185.096 33.5267 185.342 33.2441C185.597 32.9616 185.971 32.8203 186.463 32.8203C186.946 32.8203 187.315 32.9616 187.57 33.2441C187.835 33.5267 187.967 33.873 187.967 34.2832C187.967 34.6751 187.835 35.0124 187.57 35.2949C187.315 35.5684 186.946 35.7051 186.463 35.7051C185.971 35.7051 185.597 35.5684 185.342 35.2949C185.096 35.0124 184.973 34.6751 184.973 34.2832Z" fill="white"/>
<path d="M181.992 38.207V40.1484H173.994V38.207H181.992ZM176.701 34.6113H179.23V49.3359C179.23 49.8372 179.308 50.2155 179.463 50.4707C179.618 50.7259 179.818 50.8945 180.064 50.9766C180.311 51.0586 180.575 51.0996 180.857 51.0996C181.067 51.0996 181.286 51.0814 181.514 51.0449C181.751 50.9993 181.928 50.9629 182.047 50.9355L182.061 53C181.86 53.0638 181.596 53.123 181.268 53.1777C180.949 53.2415 180.561 53.2734 180.105 53.2734C179.486 53.2734 178.916 53.1504 178.396 52.9043C177.877 52.6582 177.462 52.248 177.152 51.6738C176.852 51.0905 176.701 50.3066 176.701 49.3223V34.6113Z" fill="white"/>
<path d="M162.715 38.207H165.012V52.6855C165.012 53.9889 164.747 55.1009 164.219 56.0215C163.69 56.9421 162.952 57.6393 162.004 58.1133C161.065 58.5964 159.98 58.8379 158.75 58.8379C158.24 58.8379 157.638 58.7559 156.945 58.5918C156.262 58.4368 155.587 58.168 154.922 57.7852C154.266 57.4115 153.714 56.9056 153.268 56.2676L154.594 54.7637C155.214 55.5111 155.861 56.0306 156.535 56.3223C157.219 56.6139 157.893 56.7598 158.559 56.7598C159.361 56.7598 160.053 56.6094 160.637 56.3086C161.22 56.0078 161.671 55.5612 161.99 54.9688C162.318 54.3854 162.482 53.6654 162.482 52.8086V41.4609L162.715 38.207ZM152.529 45.7676V45.4805C152.529 44.3503 152.661 43.3249 152.926 42.4043C153.199 41.4746 153.587 40.6771 154.088 40.0117C154.598 39.3464 155.214 38.8359 155.934 38.4805C156.654 38.1159 157.465 37.9336 158.367 37.9336C159.297 37.9336 160.108 38.0977 160.801 38.4258C161.503 38.7448 162.095 39.2142 162.578 39.834C163.07 40.4447 163.458 41.1829 163.74 42.0488C164.023 42.9147 164.219 43.8945 164.328 44.9883V46.2461C164.228 47.3307 164.032 48.306 163.74 49.1719C163.458 50.0378 163.07 50.776 162.578 51.3867C162.095 51.9974 161.503 52.4668 160.801 52.7949C160.099 53.1139 159.279 53.2734 158.34 53.2734C157.456 53.2734 156.654 53.0866 155.934 52.7129C155.223 52.3392 154.612 51.8151 154.102 51.1406C153.591 50.4661 153.199 49.6732 152.926 48.7617C152.661 47.8411 152.529 46.8431 152.529 45.7676ZM155.059 45.4805V45.7676C155.059 46.5059 155.132 47.1986 155.277 47.8457C155.432 48.4928 155.665 49.0625 155.975 49.5547C156.294 50.0469 156.699 50.4342 157.191 50.7168C157.684 50.9902 158.271 51.127 158.955 51.127C159.794 51.127 160.486 50.9492 161.033 50.5938C161.58 50.2383 162.013 49.7689 162.332 49.1855C162.66 48.6022 162.915 47.9688 163.098 47.2852V43.9902C162.997 43.4889 162.842 43.0059 162.633 42.541C162.432 42.0671 162.168 41.6478 161.84 41.2832C161.521 40.9095 161.124 40.6133 160.65 40.3945C160.176 40.1758 159.62 40.0664 158.982 40.0664C158.29 40.0664 157.693 40.2122 157.191 40.5039C156.699 40.7865 156.294 41.1784 155.975 41.6797C155.665 42.1719 155.432 42.7461 155.277 43.4023C155.132 44.0495 155.059 44.7422 155.059 45.4805Z" fill="white"/>
<path d="M140.184 41.3652V53H137.654V38.207H140.047L140.184 41.3652ZM139.582 45.043L138.529 45.002C138.538 43.9902 138.689 43.056 138.98 42.1992C139.272 41.3333 139.682 40.5814 140.211 39.9434C140.74 39.3053 141.368 38.8132 142.098 38.4668C142.836 38.1113 143.652 37.9336 144.545 37.9336C145.274 37.9336 145.93 38.0339 146.514 38.2344C147.097 38.4258 147.594 38.7357 148.004 39.1641C148.423 39.5924 148.742 40.1484 148.961 40.832C149.18 41.5065 149.289 42.3314 149.289 43.3066V53H146.746V43.2793C146.746 42.5046 146.632 41.8848 146.404 41.4199C146.176 40.946 145.844 40.6042 145.406 40.3945C144.969 40.1758 144.431 40.0664 143.793 40.0664C143.164 40.0664 142.59 40.1986 142.07 40.4629C141.56 40.7272 141.118 41.0918 140.744 41.5566C140.38 42.0215 140.092 42.5547 139.883 43.1562C139.682 43.7487 139.582 44.3776 139.582 45.043Z" fill="white"/>
<path d="M121.016 45.7676V45.4531C121.016 44.3867 121.171 43.3978 121.48 42.4863C121.79 41.5658 122.237 40.7682 122.82 40.0938C123.404 39.4102 124.11 38.8815 124.939 38.5078C125.769 38.125 126.699 37.9336 127.729 37.9336C128.768 37.9336 129.702 38.125 130.531 38.5078C131.37 38.8815 132.081 39.4102 132.664 40.0938C133.257 40.7682 133.708 41.5658 134.018 42.4863C134.327 43.3978 134.482 44.3867 134.482 45.4531V45.7676C134.482 46.834 134.327 47.8229 134.018 48.7344C133.708 49.6458 133.257 50.4434 132.664 51.127C132.081 51.8014 131.374 52.3301 130.545 52.7129C129.725 53.0866 128.795 53.2734 127.756 53.2734C126.717 53.2734 125.783 53.0866 124.953 52.7129C124.124 52.3301 123.413 51.8014 122.82 51.127C122.237 50.4434 121.79 49.6458 121.48 48.7344C121.171 47.8229 121.016 46.834 121.016 45.7676ZM123.545 45.4531V45.7676C123.545 46.5059 123.632 47.2031 123.805 47.8594C123.978 48.5065 124.238 49.0807 124.584 49.582C124.939 50.0833 125.382 50.4798 125.91 50.7715C126.439 51.054 127.054 51.1953 127.756 51.1953C128.449 51.1953 129.055 51.054 129.574 50.7715C130.103 50.4798 130.54 50.0833 130.887 49.582C131.233 49.0807 131.493 48.5065 131.666 47.8594C131.848 47.2031 131.939 46.5059 131.939 45.7676V45.4531C131.939 44.724 131.848 44.0358 131.666 43.3887C131.493 42.7324 131.229 42.1536 130.873 41.6523C130.527 41.1419 130.089 40.7409 129.561 40.4492C129.041 40.1576 128.43 40.0117 127.729 40.0117C127.036 40.0117 126.425 40.1576 125.896 40.4492C125.377 40.7409 124.939 41.1419 124.584 41.6523C124.238 42.1536 123.978 42.7324 123.805 43.3887C123.632 44.0358 123.545 44.724 123.545 45.4531ZM128.385 32L131.775 35.7324V35.8691H129.67L127.619 33.5586L125.582 35.8691H123.504V35.7188L126.854 32H128.385Z" fill="white"/>
<path d="M108.793 32V53H106.264V32H108.793ZM108.191 45.043L107.139 45.002C107.148 43.9902 107.298 43.056 107.59 42.1992C107.882 41.3333 108.292 40.5814 108.82 39.9434C109.349 39.3053 109.978 38.8132 110.707 38.4668C111.445 38.1113 112.261 37.9336 113.154 37.9336C113.883 37.9336 114.54 38.0339 115.123 38.2344C115.706 38.4258 116.203 38.7357 116.613 39.1641C117.033 39.5924 117.352 40.1484 117.57 40.832C117.789 41.5065 117.898 42.3314 117.898 43.3066V53H115.355V43.2793C115.355 42.5046 115.242 41.8848 115.014 41.4199C114.786 40.946 114.453 40.6042 114.016 40.3945C113.578 40.1758 113.04 40.0664 112.402 40.0664C111.773 40.0664 111.199 40.1986 110.68 40.4629C110.169 40.7272 109.727 41.0918 109.354 41.5566C108.989 42.0215 108.702 42.5547 108.492 43.1562C108.292 43.7487 108.191 44.3776 108.191 45.043Z" fill="white"/>
<path d="M103.297 38.207V40.1484H95.2988V38.207H103.297ZM98.0059 34.6113H100.535V49.3359C100.535 49.8372 100.613 50.2155 100.768 50.4707C100.923 50.7259 101.123 50.8945 101.369 50.9766C101.615 51.0586 101.88 51.0996 102.162 51.0996C102.372 51.0996 102.59 51.0814 102.818 51.0449C103.055 50.9993 103.233 50.9629 103.352 50.9355L103.365 53C103.165 53.0638 102.9 53.123 102.572 53.1777C102.253 53.2415 101.866 53.2734 101.41 53.2734C100.79 53.2734 100.221 53.1504 99.7012 52.9043C99.1816 52.6582 98.7669 52.248 98.457 51.6738C98.1562 51.0905 98.0059 50.3066 98.0059 49.3223V34.6113Z" fill="white"/>
<path d="M86.0977 38.207V53H83.5547V38.207H86.0977ZM83.3633 34.2832C83.3633 33.873 83.4863 33.5267 83.7324 33.2441C83.9876 32.9616 84.3613 32.8203 84.8535 32.8203C85.3366 32.8203 85.7057 32.9616 85.9609 33.2441C86.2253 33.5267 86.3574 33.873 86.3574 34.2832C86.3574 34.6751 86.2253 35.0124 85.9609 35.2949C85.7057 35.5684 85.3366 35.7051 84.8535 35.7051C84.3613 35.7051 83.9876 35.5684 83.7324 35.2949C83.4863 35.0124 83.3633 34.6751 83.3633 34.2832Z" fill="white"/>
<path d="M79.8633 37.0176H81.8047C81.8047 38.0111 81.6725 38.8451 81.4082 39.5195C81.153 40.194 80.7018 40.6999 80.0547 41.0371C79.4076 41.3743 78.4961 41.543 77.3203 41.543V39.9844C78.1406 39.9844 78.7285 39.8841 79.084 39.6836C79.4395 39.474 79.6582 39.1504 79.7402 38.7129C79.8223 38.2754 79.8633 37.7103 79.8633 37.0176ZM75.0645 49.582V38.207H77.6074V53H75.1875L75.0645 49.582ZM75.543 46.4648L76.5957 46.4375C76.5957 47.4219 76.4909 48.3333 76.2812 49.1719C76.0807 50.0013 75.7526 50.7214 75.2969 51.332C74.8411 51.9427 74.2441 52.4212 73.5059 52.7676C72.7676 53.1048 71.8698 53.2734 70.8125 53.2734C70.0924 53.2734 69.4316 53.1686 68.8301 52.959C68.2376 52.7493 67.7272 52.4258 67.2988 51.9883C66.8704 51.5508 66.5378 50.9811 66.3008 50.2793C66.0729 49.5775 65.959 48.7344 65.959 47.75V38.207H68.4883V47.7773C68.4883 48.4427 68.5612 48.9941 68.707 49.4316C68.862 49.86 69.0671 50.2018 69.3223 50.457C69.5866 50.7031 69.8783 50.8763 70.1973 50.9766C70.5254 51.0768 70.8626 51.127 71.209 51.127C72.2845 51.127 73.1367 50.9219 73.7656 50.5117C74.3945 50.0924 74.8457 49.5319 75.1191 48.8301C75.4017 48.1191 75.543 47.3307 75.543 46.4648ZM72.9727 36.0879H71.1543L71.1406 34.0098C71.6055 33.9824 71.9837 33.9368 72.2754 33.873C72.5671 33.8001 72.7812 33.6953 72.918 33.5586C73.0547 33.4128 73.123 33.2214 73.123 32.9844C73.123 32.793 73.0638 32.6335 72.9453 32.5059C72.8268 32.3691 72.6628 32.2598 72.4531 32.1777C72.2435 32.0866 72.002 32.0228 71.7285 31.9863C71.4551 31.9499 71.1634 31.9316 70.8535 31.9316L70.9492 30.4824C71.6237 30.4824 72.2161 30.5417 72.7266 30.6602C73.2461 30.7786 73.679 30.9518 74.0254 31.1797C74.3809 31.4076 74.6452 31.681 74.8184 32C75.0007 32.3099 75.0918 32.6562 75.0918 33.0391C75.0918 33.7318 74.873 34.2376 74.4355 34.5566C73.998 34.8665 73.515 35.0579 72.9863 35.1309L72.9727 36.0879Z" fill="white"/>
<path d="M62.0215 43.0879V50.375C61.7754 50.7396 61.3835 51.1497 60.8457 51.6055C60.3079 52.0521 59.5651 52.444 58.6172 52.7812C57.6784 53.1094 56.4661 53.2734 54.9805 53.2734C53.7682 53.2734 52.6517 53.0638 51.6309 52.6445C50.6191 52.2161 49.7396 51.5964 48.9922 50.7852C48.2539 49.9648 47.6797 48.9714 47.2695 47.8047C46.8685 46.6289 46.668 45.2982 46.668 43.8125V42.2676C46.668 40.7819 46.8411 39.4557 47.1875 38.2891C47.543 37.1224 48.0625 36.1335 48.7461 35.3223C49.4297 34.502 50.2682 33.8822 51.2617 33.4629C52.2552 33.0345 53.3945 32.8203 54.6797 32.8203C56.2018 32.8203 57.4733 33.0846 58.4941 33.6133C59.5241 34.1328 60.3262 34.8529 60.9004 35.7734C61.4837 36.694 61.8574 37.7422 62.0215 38.918H59.3828C59.2643 38.1979 59.0273 37.5417 58.6719 36.9492C58.3255 36.3568 57.8288 35.8828 57.1816 35.5273C56.5345 35.1628 55.7005 34.9805 54.6797 34.9805C53.7591 34.9805 52.9616 35.1491 52.2871 35.4863C51.6126 35.8236 51.0566 36.3066 50.6191 36.9355C50.1816 37.5645 49.8535 38.3255 49.6348 39.2188C49.4251 40.112 49.3203 41.1191 49.3203 42.2402V43.8125C49.3203 44.9609 49.4525 45.9863 49.7168 46.8887C49.9902 47.791 50.3776 48.5612 50.8789 49.1992C51.3802 49.8281 51.9772 50.3066 52.6699 50.6348C53.3717 50.9629 54.1465 51.127 54.9941 51.127C55.9329 51.127 56.694 51.0495 57.2773 50.8945C57.8607 50.7305 58.3164 50.5391 58.6445 50.3203C58.9727 50.0924 59.2233 49.8783 59.3965 49.6777V45.2207H54.7891V43.0879H62.0215Z" fill="white"/>
</svg>
